<?xml version="1.0" encoding="utf-8"?>
<!DOCTYPE svg PUBLIC "-//W3C//DTD SVG 1.1//EN" "http://www.w3.org/Graphics/SVG/1.1/DTD/svg11.dtd">
<svg version="1.1" id="Layer_1" xmlns="http://www.w3.org/2000/svg" xmlns:xlink="http://www.w3.org/1999/xlink"
	 preserveAspectRatio="xMinYMin meet" width="48px" height="48px" viewBox=".4 .4 1 1">
<g>
	<ellipse fill="#FFFFFF" cx="0.89" cy="1.323" rx="0.476" ry="0.048"/>
	<ellipse fill="#F9F8F8" cx="0.907" cy="1.323" rx="0.448" ry="0.045"/>
	<ellipse fill="#F4F4F3" cx="0.924" cy="1.323" rx="0.42" ry="0.042"/>
	<ellipse fill="#F0F0EF" cx="0.94" cy="1.323" rx="0.392" ry="0.038"/>
	<ellipse fill="#EDECEB" cx="0.957" cy="1.323" rx="0.364" ry="0.035"/>
	<ellipse fill="#E9E8E8" cx="0.975" cy="1.323" rx="0.335" ry="0.032"/>
	<ellipse fill="#E5E5E4" cx="0.991" cy="1.323" rx="0.307" ry="0.028"/>
	<ellipse fill="#E1E1E1" cx="1.008" cy="1.323" rx="0.279" ry="0.025"/>
	<ellipse fill="#DEDDDD" cx="1.025" cy="1.323" rx="0.251" ry="0.021"/>
	<ellipse fill="#DADADA" cx="1.042" cy="1.323" rx="0.223" ry="0.018"/>
	<ellipse fill="#CFCECE" cx="1.072" cy="1.323" rx="0.187" ry="0.016"/>
	<ellipse fill="#C4C3C3" cx="1.103" cy="1.323" rx="0.15" ry="0.015"/>
	<ellipse fill="#BAB9B9" cx="1.133" cy="1.323" rx="0.113" ry="0.013"/>
	<ellipse fill="#AFAEAE" cx="1.163" cy="1.323" rx="0.076" ry="0.011"/>
	<ellipse fill="#A5A5A5" cx="1.193" cy="1.323" rx="0.04" ry="0.009"/>
</g>
<linearGradient id="SVGID_1_" gradientUnits="userSpaceOnUse" x1="2801.9438" y1="1.3169" x2="2801.9438" y2="0.9902" gradientTransform="matrix(1 0 0 1 -2800.8594 0)">
	<stop  offset="0" style="stop-color:#010101"/>
	<stop  offset="0.1703" style="stop-color:#212121"/>
	<stop  offset="1" style="stop-color:#4B4C4C"/>
</linearGradient>
<path fill="url(#SVGID_1_)" d="M1.216,1.162L1.049,0.99c-0.03,0.052-0.073,0.096-0.124,0.127l0.17,0.176
	c0.036,0.033,0.092,0.031,0.126-0.005C1.254,1.252,1.252,1.196,1.216,1.162z"/>
<radialGradient id="SVGID_2_" cx="2801.6411" cy="0.854" r="0.302" gradientTransform="matrix(1 0 0 1 -2800.8594 0)" gradientUnits="userSpaceOnUse">
	<stop  offset="0" style="stop-color:#DADADA"/>
	<stop  offset="1" style="stop-color:#A2A2A2"/>
</radialGradient>
<circle fill="url(#SVGID_2_)" cx="0.781" cy="0.854" r="0.302"/>
<linearGradient id="SVGID_3_" gradientUnits="userSpaceOnUse" x1="2801.6411" y1="0.7549" x2="2801.6411" y2="0.5698" gradientTransform="matrix(1 0 0 1 -2800.8594 0)">
	<stop  offset="0" style="stop-color:#A2A2A2"/>
	<stop  offset="1" style="stop-color:#FFFFFF"/>
</linearGradient>
<path fill="url(#SVGID_3_)" d="M0.781,0.588c-0.111,0-0.207,0.069-0.246,0.167l0,0L0.518,0.748C0.56,0.644,0.662,0.57,0.781,0.57
	l0,0c0.119,0,0.221,0.074,0.263,0.178l0,0L1.027,0.755C0.988,0.657,0.893,0.588,0.781,0.588L0.781,0.588z"/>
<linearGradient id="SVGID_4_" gradientUnits="userSpaceOnUse" x1="2801.6411" y1="0.9351" x2="2801.6411" y2="1.1021" gradientTransform="matrix(1 0 0 1 -2800.8594 0)">
	<stop  offset="0" style="stop-color:#A2A2A2"/>
	<stop  offset="1" style="stop-color:#FFFFFF"/>
</linearGradient>
<path fill="url(#SVGID_4_)" d="M0.549,0.941L0.549,0.941l0.017-0.006C0.6,1.022,0.683,1.083,0.781,1.083l0,0
	c0.098,0,0.182-0.062,0.215-0.148l0,0l0.017,0.006C0.978,1.035,0.887,1.102,0.781,1.102l0,0C0.675,1.102,0.585,1.035,0.549,0.941
	L0.549,0.941z"/>
<radialGradient id="SVGID_5_" cx="2801.5464" cy="0.5269" r="0.6041" gradientTransform="matrix(1 0 0 1 -2800.8594 0)" gradientUnits="userSpaceOnUse">
	<stop  offset="0" style="stop-color:#E3F4FC"/>
	<stop  offset="1" style="stop-color:#DEECF9"/>
</radialGradient>
<circle fill="url(#SVGID_5_)" cx="0.781" cy="0.854" r="0.211"/>
<linearGradient id="SVGID_6_" gradientUnits="userSpaceOnUse" x1="2801.4458" y1="0.7568" x2="2801.8345" y2="0.7568" gradientTransform="matrix(1 0 0 1 -2800.8594 0)">
	<stop  offset="0" style="stop-color:#FFFFFF"/>
	<stop  offset="1" style="stop-color:#DEECF9"/>
</linearGradient>
<path fill="url(#SVGID_6_)" d="M0.958,0.854c0-0.097-0.079-0.176-0.177-0.177l0,0c-0.097,0-0.176,0.08-0.177,0.177l0,0H0.587
	c0-0.107,0.087-0.194,0.194-0.194l0,0c0.107,0,0.194,0.087,0.194,0.194l0,0H0.958L0.958,0.854z"/>
<linearGradient id="SVGID_7_" gradientUnits="userSpaceOnUse" x1="2801.4458" y1="0.7568" x2="2801.8345" y2="0.7568" gradientTransform="matrix(1 0 0 1 -2800.8594 0)">
	<stop  offset="0" style="stop-color:#CCDAE7"/>
	<stop  offset="1" style="stop-color:#FAFAFA"/>
</linearGradient>
<path fill="url(#SVGID_7_)" d="M0.958,0.854c0-0.097-0.079-0.176-0.177-0.177l0,0c-0.097,0-0.176,0.08-0.177,0.177l0,0H0.587
	c0-0.107,0.087-0.194,0.194-0.194l0,0c0.107,0,0.194,0.087,0.194,0.194l0,0H0.958L0.958,0.854z"/>
</svg>
